ffmpeg started on 2025-05-26 at 19:08:28
Report written to "D:\Convert\FFMetrics\reports\ssim_report-6.txt"
Log level: 32
Command line:
ffmpeg -hide_banner -nostdin -i "G:\\\xc0\xed\xe8\xec\xe5\\\xce\xed\xe3\xee\xe8\xed\xe3\xe8\\!_34_\xc2\xe5\xf1\xed\xe0_2024\\DreamCast\\\xcc\xee\xe9 \xf1\xee\xf1\xe5\xe4-\xb8\xea\xe0\xe9\\[DC] Tonari no Youkai-san - 04_Telegram_HEVC.mkv" -i "G:\\\xc0\xed\xe8\xec\xe5\\\xce\xed\xe3\xee\xe8\xed\xe3\xe8\\!_34_\xc2\xe5\xf1\xed\xe0_2024\\DreamCast\\\xcc\xee\xe9 \xf1\xee\xf1\xe5\xe4-\xb8\xea\xe0\xe9\\[DC] Tonari no Youkai-san - 04_Telegram.mp4" -lavfi "[0:v]settb=AVTB,setpts=PTS-STARTPTS,format=pix_fmts=yuv420p10,fps=24000/1001,scale=1920:1080:flags=bicubic[main];[1:v]settb=AVTB,setpts=PTS-STARTPTS,format=pix_fmts=yuv420p,fps=24000/1001,scale=1920:1080:flags=bicubic[ref];[main][ref]ssim=eof_action=endall:stats_file='D\\:/Convert/FFMetrics/logs/ssim_logfile-6.txt'" -f null -
Input #0, matroska,webm, from 'G:\Аниме\Онгоинги\!_34_Весна_2024\DreamCast\Мой сосед-ёкай\[DC] Tonari no Youkai-san - 04_Telegram_HEVC.mkv':
  Metadata:
    COMPATIBLE_BRANDS: isomiso2avc1mp41
    MAJOR_BRAND     : isom
    MINOR_VERSION   : 512
    ENCODER         : Lavf61.7.100
  Duration: 00:23:46.60, start: -0.021000, bitrate: 923 kb/s
  Stream #0:0: Video: hevc (Main 10), yuv420p10le(tv, bt709, progressive), 1920x1080 [SAR 1:1 DAR 16:9], 23.98 fps, 23.98 tbr, 1k tbn (default)
      Metadata:
        HANDLER_NAME    : VideoHandler
        VENDOR_ID       : [0][0][0][0]
        ENCODER         : Lavc61.19.100 libx265
        BPS             : 727170
        DURATION        : 00:23:46.466708333
        NUMBER_OF_FRAMES: 34201
        NUMBER_OF_BYTES : 129660563
        _STATISTICS_WRITING_APP: mkvpropedit v66.0.0 ('Josie') 64-bit
        _STATISTICS_WRITING_DATE_UTC: 2025-05-26 13:09:03
        _STATISTICS_TAGS: BPS DURATION NUMBER_OF_FRAMES NUMBER_OF_BYTES
  Stream #0:1: Audio: aac (LC), 48000 Hz, stereo, fltp (default)
      Metadata:
        HANDLER_NAME    : SoundHandler
        VENDOR_ID       : [0][0][0][0]
        ENCODER         : Lavc61.19.100 aac
        BPS             : 192765
        DURATION        : 00:23:46.602000000
        NUMBER_OF_FRAMES: 66873
        NUMBER_OF_BYTES : 34374923
        _STATISTICS_WRITING_APP: mkvpropedit v66.0.0 ('Josie') 64-bit
        _STATISTICS_WRITING_DATE_UTC: 2025-05-26 13:09:03
        _STATISTICS_TAGS: BPS DURATION NUMBER_OF_FRAMES NUMBER_OF_BYTES
Input #1, mov,mp4,m4a,3gp,3g2,mj2, from 'G:\Аниме\Онгоинги\!_34_Весна_2024\DreamCast\Мой сосед-ёкай\[DC] Tonari no Youkai-san - 04_Telegram.mp4':
  Metadata:
    major_brand     : isom
    minor_version   : 512
    compatible_brands: isomiso2avc1mp41
    encoder         : Lavf60.16.100
  Duration: 00:23:46.58, start: 0.000000, bitrate: 3559 kb/s
  Stream #1:0[0x1](und): Video: h264 (High) (avc1 / 0x31637661), yuv420p(tv, bt709, progressive), 1920x1080 [SAR 1:1 DAR 16:9], 3412 kb/s, 23.98 fps, 23.98 tbr, 24k tbn (default)
      Metadata:
        handler_name    : VideoHandler
        vendor_id       : [0][0][0][0]
        encoder         : Lavc60.31.102 h264_qsv
  Stream #1:1[0x2](und): Audio: aac (HE-AACv2) (mp4a / 0x6134706D), 48000 Hz, stereo, fltp, 144 kb/s (default)
      Metadata:
        handler_name    : SoundHandler
        vendor_id       : [0][0][0][0]
Stream mapping:
  Stream #0:0 (hevc) -> settb:default
  Stream #1:0 (h264) -> settb:default
  ssim:default -> Stream #0:0 (wrapped_avframe)
  Stream #0:1 -> #0:1 (aac (native) -> pcm_s16le (native))
Output #0, null, to 'pipe:':
  Metadata:
    COMPATIBLE_BRANDS: isomiso2avc1mp41
    MAJOR_BRAND     : isom
    MINOR_VERSION   : 512
    encoder         : Lavf61.7.100
  Stream #0:0: Video: wrapped_avframe, yuv420p10le(tv, bt709, progressive), 1920x1080 [SAR 1:1 DAR 16:9], q=2-31, 200 kb/s, 23.98 fps, 23.98 tbn
      Metadata:
        encoder         : Lavc61.19.100 wrapped_avframe
  Stream #0:1: Audio: pcm_s16le, 48000 Hz, stereo, s16, 1536 kb/s (default)
      Metadata:
        HANDLER_NAME    : SoundHandler
        VENDOR_ID       : [0][0][0][0]
        _STATISTICS_TAGS: BPS DURATION NUMBER_OF_FRAMES NUMBER_OF_BYTES
        BPS             : 192765
        DURATION        : 00:23:46.602000000
        NUMBER_OF_FRAMES: 66873
        NUMBER_OF_BYTES : 34374923
        _STATISTICS_WRITING_APP: mkvpropedit v66.0.0 ('Josie') 64-bit
        _STATISTICS_WRITING_DATE_UTC: 2025-05-26 13:09:03
        encoder         : Lavc61.19.100 pcm_s16le
frame=  177 fps=0.0 q=-0.0 size=N/A time=00:00:07.38 bitrate=N/A speed=14.2x    frame=  413 fps=401 q=-0.0 size=N/A time=00:00:17.22 bitrate=N/A speed=16.7x    frame=  679 fps=436 q=-0.0 size=N/A time=00:00:28.31 bitrate=N/A speed=18.2x    frame=  924 fps=448 q=-0.0 size=N/A time=00:00:38.53 bitrate=N/A speed=18.7x    frame= 1210 fps=468 q=-0.0 size=N/A time=00:00:50.46 bitrate=N/A speed=19.5x    frame= 1462 fps=473 q=-0.0 size=N/A time=00:01:00.97 bitrate=N/A speed=19.7x    frame= 1705 fps=472 q=-0.0 size=N/A time=00:01:11.11 bitrate=N/A speed=19.7x    frame= 1953 fps=474 q=-0.0 size=N/A time=00:01:21.45 bitrate=N/A speed=19.8x    frame= 2180 fps=470 q=-0.0 size=N/A time=00:01:30.92 bitrate=N/A speed=19.6x    frame= 2450 fps=474 q=-0.0 size=N/A time=00:01:42.18 bitrate=N/A speed=19.8x    frame= 2650 fps=467 q=-0.0 size=N/A time=00:01:50.52 bitrate=N/A speed=19.5x    frame= 2889 fps=466 q=-0.0 size=N/A time=00:02:00.49 bitrate=N/A speed=19.4x    frame= 3099 fps=462 q=-0.0 size=N/A time=00:02:09.25 bitrate=N/A speed=19.3x    frame= 3346 fps=463 q=-0.0 size=N/A time=00:02:19.55 bitrate=N/A speed=19.3x    frame= 3556 fps=460 q=-0.0 size=N/A time=00:02:28.31 bitrate=N/A speed=19.2x    frame= 3764 fps=456 q=-0.0 size=N/A time=00:02:36.99 bitrate=N/A speed=  19x    frame= 3974 fps=453 q=-0.0 size=N/A time=00:02:45.74 bitrate=N/A speed=18.9x    frame= 4186 fps=451 q=-0.0 size=N/A time=00:02:54.59 bitrate=N/A speed=18.8x    frame= 4384 fps=447 q=-0.0 size=N/A time=00:03:02.84 bitrate=N/A speed=18.7x    frame= 4622 fps=448 q=-0.0 size=N/A time=00:03:12.77 bitrate=N/A speed=18.7x    frame= 4852 fps=448 q=-0.0 size=N/A time=00:03:22.36 bitrate=N/A speed=18.7x    frame= 5071 fps=447 q=-0.0 size=N/A time=00:03:31.50 bitrate=N/A speed=18.6x    frame= 5338 fps=450 q=-0.0 size=N/A time=00:03:42.63 bitrate=N/A speed=18.8x    frame= 5585 fps=451 q=-0.0 size=N/A time=00:03:52.94 bitrate=N/A speed=18.8x    frame= 5859 fps=454 q=-0.0 size=N/A time=00:04:04.36 bitrate=N/A speed=18.9x    frame= 6123 fps=457 q=-0.0 size=N/A time=00:04:15.38 bitrate=N/A speed=  19x    frame= 6398 fps=459 q=-0.0 size=N/A time=00:04:26.84 bitrate=N/A speed=19.2x    frame= 6659 fps=461 q=-0.0 size=N/A time=00:04:37.73 bitrate=N/A speed=19.2x    frame= 6851 fps=458 q=-0.0 size=N/A time=00:04:45.74 bitrate=N/A speed=19.1x    frame= 7101 fps=459 q=-0.0 size=N/A time=00:04:56.17 bitrate=N/A speed=19.1x    frame= 7364 fps=461 q=-0.0 size=N/A time=00:05:07.14 bitrate=N/A speed=19.2x    frame= 7605 fps=461 q=-0.0 size=N/A time=00:05:17.19 bitrate=N/A speed=19.2x    frame= 7868 fps=462 q=-0.0 size=N/A time=00:05:28.16 bitrate=N/A speed=19.3x    frame= 8141 fps=464 q=-0.0 size=N/A time=00:05:39.54 bitrate=N/A speed=19.4x    frame= 8392 fps=465 q=-0.0 size=N/A time=00:05:50.01 bitrate=N/A speed=19.4x    frame= 8636 fps=465 q=-0.0 size=N/A time=00:06:00.19 bitrate=N/A speed=19.4x    frame= 8907 fps=467 q=-0.0 size=N/A time=00:06:11.49 bitrate=N/A speed=19.5x    frame= 9159 fps=467 q=-0.0 size=N/A time=00:06:22.00 bitrate=N/A speed=19.5x    frame= 9409 fps=468 q=-0.0 size=N/A time=00:06:32.43 bitrate=N/A speed=19.5x    frame= 9664 fps=468 q=-0.0 size=N/A time=00:06:43.06 bitrate=N/A speed=19.5x    frame= 9927 fps=470 q=-0.0 size=N/A time=00:06:54.03 bitrate=N/A speed=19.6x    frame=10189 fps=470 q=-0.0 size=N/A time=00:07:04.96 bitrate=N/A speed=19.6x    frame=10443 fps=471 q=-0.0 size=N/A time=00:07:15.56 bitrate=N/A speed=19.6x    frame=10715 fps=472 q=-0.0 size=N/A time=00:07:26.90 bitrate=N/A speed=19.7x    frame=10981 fps=473 q=-0.0 size=N/A time=00:07:37.99 bitrate=N/A speed=19.7x    frame=11227 fps=473 q=-0.0 size=N/A time=00:07:48.25 bitrate=N/A speed=19.7x    frame=11468 fps=473 q=-0.0 size=N/A time=00:07:58.31 bitrate=N/A speed=19.7x    frame=11721 fps=474 q=-0.0 size=N/A time=00:08:08.86 bitrate=N/A speed=19.8x    frame=11993 fps=475 q=-0.0 size=N/A time=00:08:20.20 bitrate=N/A speed=19.8x    frame=12242 fps=475 q=-0.0 size=N/A time=00:08:30.59 bitrate=N/A speed=19.8x    frame=12510 fps=476 q=-0.0 size=N/A time=00:08:41.77 bitrate=N/A speed=19.8x    frame=12790 fps=477 q=-0.0 size=N/A time=00:08:53.44 bitrate=N/A speed=19.9x    frame=13051 fps=477 q=-0.0 size=N/A time=00:09:04.33 bitrate=N/A speed=19.9x    frame=13282 fps=477 q=-0.0 size=N/A time=00:09:13.97 bitrate=N/A speed=19.9x    frame=13544 fps=477 q=-0.0 size=N/A time=00:09:24.89 bitrate=N/A speed=19.9x    frame=13797 fps=478 q=-0.0 size=N/A time=00:09:35.44 bitrate=N/A speed=19.9x    frame=14066 fps=479 q=-0.0 size=N/A time=00:09:46.66 bitrate=N/A speed=  20x    frame=14340 fps=479 q=-0.0 size=N/A time=00:09:58.09 bitrate=N/A speed=  20x    frame=14606 fps=480 q=-0.0 size=N/A time=00:10:09.19 bitrate=N/A speed=  20x    frame=14880 fps=481 q=-0.0 size=N/A time=00:10:20.62 bitrate=N/A speed=20.1x    frame=15140 fps=481 q=-0.0 size=N/A time=00:10:31.46 bitrate=N/A speed=20.1x    frame=15360 fps=480 q=-0.0 size=N/A time=00:10:40.64 bitrate=N/A speed=  20x    frame=15626 fps=481 q=-0.0 size=N/A time=00:10:51.73 bitrate=N/A speed=20.1x    frame=15889 fps=481 q=-0.0 size=N/A time=00:11:02.70 bitrate=N/A speed=20.1x    frame=16134 fps=481 q=-0.0 size=N/A time=00:11:12.92 bitrate=N/A speed=20.1x    frame=16397 fps=482 q=-0.0 size=N/A time=00:11:23.89 bitrate=N/A speed=20.1x    frame=16629 fps=481 q=-0.0 size=N/A time=00:11:33.56 bitrate=N/A speed=20.1x    frame=16901 fps=482 q=-0.0 size=N/A time=00:11:44.91 bitrate=N/A speed=20.1x    frame=17148 fps=482 q=-0.0 size=N/A time=00:11:55.21 bitrate=N/A speed=20.1x    frame=17394 fps=482 q=-0.0 size=N/A time=00:12:05.47 bitrate=N/A speed=20.1x    frame=17613 fps=481 q=-0.0 size=N/A time=00:12:14.60 bitrate=N/A speed=20.1x    frame=17870 fps=481 q=-0.0 size=N/A time=00:12:25.32 bitrate=N/A speed=20.1x    frame=18139 fps=482 q=-0.0 size=N/A time=00:12:36.54 bitrate=N/A speed=20.1x    frame=18399 fps=482 q=-0.0 size=N/A time=00:12:47.39 bitrate=N/A speed=20.1x    frame=18629 fps=482 q=-0.0 size=N/A time=00:12:56.98 bitrate=N/A speed=20.1x    frame=18867 fps=481 q=-0.0 size=N/A time=00:13:06.91 bitrate=N/A speed=20.1x    frame=19120 fps=481 q=-0.0 size=N/A time=00:13:17.46 bitrate=N/A speed=20.1x    frame=19378 fps=482 q=-0.0 size=N/A time=00:13:28.22 bitrate=N/A speed=20.1x    frame=19666 fps=482 q=-0.0 size=N/A time=00:13:40.23 bitrate=N/A speed=20.1x    frame=19943 fps=483 q=-0.0 size=N/A time=00:13:51.78 bitrate=N/A speed=20.2x    frame=20222 fps=484 q=-0.0 size=N/A time=00:14:03.42 bitrate=N/A speed=20.2x    frame=20493 fps=484 q=-0.0 size=N/A time=00:14:14.72 bitrate=N/A speed=20.2x    frame=20750 fps=485 q=-0.0 size=N/A time=00:14:25.44 bitrate=N/A speed=20.2x    frame=21004 fps=485 q=-0.0 size=N/A time=00:14:36.04 bitrate=N/A speed=20.2x    frame=21273 fps=485 q=-0.0 size=N/A time=00:14:47.26 bitrate=N/A speed=20.2x    frame=21546 fps=486 q=-0.0 size=N/A time=00:14:58.64 bitrate=N/A speed=20.3x    frame=21794 fps=486 q=-0.0 size=N/A time=00:15:08.99 bitrate=N/A speed=20.3x    frame=22013 fps=485 q=-0.0 size=N/A time=00:15:18.12 bitrate=N/A speed=20.2x    frame=22216 fps=484 q=-0.0 size=N/A time=00:15:26.59 bitrate=N/A speed=20.2x    frame=22436 fps=483 q=-0.0 size=N/A time=00:15:35.76 bitrate=N/A speed=20.2x    frame=22671 fps=483 q=-0.0 size=N/A time=00:15:45.56 bitrate=N/A speed=20.1x    frame=22940 fps=483 q=-0.0 size=N/A time=00:15:56.78 bitrate=N/A speed=20.2x    frame=23184 fps=483 q=-0.0 size=N/A time=00:16:06.96 bitrate=N/A speed=20.2x    frame=23457 fps=484 q=-0.0 size=N/A time=00:16:18.35 bitrate=N/A speed=20.2x    frame=23743 fps=484 q=-0.0 size=N/A time=00:16:30.28 bitrate=N/A speed=20.2x    frame=24001 fps=485 q=-0.0 size=N/A time=00:16:41.04 bitrate=N/A speed=20.2x    frame=24286 fps=485 q=-0.0 size=N/A time=00:16:52.92 bitrate=N/A speed=20.2x    frame=24538 fps=485 q=-0.0 size=N/A time=00:17:03.43 bitrate=N/A speed=20.2x    frame=24777 fps=485 q=-0.0 size=N/A time=00:17:13.40 bitrate=N/A speed=20.2x    frame=25027 fps=485 q=-0.0 size=N/A time=00:17:23.83 bitrate=N/A speed=20.2x    frame=25315 fps=486 q=-0.0 size=N/A time=00:17:35.84 bitrate=N/A speed=20.3x    frame=25570 fps=486 q=-0.0 size=N/A time=00:17:46.48 bitrate=N/A speed=20.3x    frame=25815 fps=486 q=-0.0 size=N/A time=00:17:56.70 bitrate=N/A speed=20.3x    frame=26090 fps=486 q=-0.0 size=N/A time=00:18:08.17 bitrate=N/A speed=20.3x    frame=26368 fps=487 q=-0.0 size=N/A time=00:18:19.76 bitrate=N/A speed=20.3x    frame=26624 fps=487 q=-0.0 size=N/A time=00:18:30.44 bitrate=N/A speed=20.3x    frame=26886 fps=487 q=-0.0 size=N/A time=00:18:41.37 bitrate=N/A speed=20.3x    frame=27133 fps=487 q=-0.0 size=N/A time=00:18:51.67 bitrate=N/A speed=20.3x    frame=27382 fps=487 q=-0.0 size=N/A time=00:19:02.05 bitrate=N/A speed=20.3x    frame=27637 fps=487 q=-0.0 size=N/A time=00:19:12.69 bitrate=N/A speed=20.3x    frame=27903 fps=487 q=-0.0 size=N/A time=00:19:23.78 bitrate=N/A speed=20.3x    frame=28170 fps=487 q=-0.0 size=N/A time=00:19:34.92 bitrate=N/A speed=20.3x    frame=28422 fps=488 q=-0.0 size=N/A time=00:19:45.43 bitrate=N/A speed=20.3x    frame=28678 fps=488 q=-0.0 size=N/A time=00:19:56.11 bitrate=N/A speed=20.3x    frame=28931 fps=488 q=-0.0 size=N/A time=00:20:06.66 bitrate=N/A speed=20.3x    frame=29131 fps=487 q=-0.0 size=N/A time=00:20:15.00 bitrate=N/A speed=20.3x    frame=29369 fps=486 q=-0.0 size=N/A time=00:20:24.93 bitrate=N/A speed=20.3x    frame=29592 fps=486 q=-0.0 size=N/A time=00:20:34.23 bitrate=N/A speed=20.3x    frame=29797 fps=485 q=-0.0 size=N/A time=00:20:42.78 bitrate=N/A speed=20.2x    frame=30016 fps=485 q=-0.0 size=N/A time=00:20:51.91 bitrate=N/A speed=20.2x    frame=30206 fps=484 q=-0.0 size=N/A time=00:20:59.84 bitrate=N/A speed=20.2x    frame=30404 fps=483 q=-0.0 size=N/A time=00:21:08.10 bitrate=N/A speed=20.1x    frame=30615 fps=483 q=-0.0 size=N/A time=00:21:16.90 bitrate=N/A speed=20.1x    frame=30863 fps=482 q=-0.0 size=N/A time=00:21:27.24 bitrate=N/A speed=20.1x    frame=31105 fps=482 q=-0.0 size=N/A time=00:21:37.33 bitrate=N/A speed=20.1x    frame=31325 fps=482 q=-0.0 size=N/A time=00:21:46.51 bitrate=N/A speed=20.1x    frame=31579 fps=482 q=-0.0 size=N/A time=00:21:57.10 bitrate=N/A speed=20.1x    frame=31843 fps=482 q=-0.0 size=N/A time=00:22:08.11 bitrate=N/A speed=20.1x    frame=32022 fps=481 q=-0.0 size=N/A time=00:22:15.58 bitrate=N/A speed=20.1x    frame=32297 fps=481 q=-0.0 size=N/A time=00:22:27.05 bitrate=N/A speed=20.1x    frame=32579 fps=482 q=-0.0 size=N/A time=00:22:38.81 bitrate=N/A speed=20.1x    frame=32838 fps=482 q=-0.0 size=N/A time=00:22:49.61 bitrate=N/A speed=20.1x    frame=33110 fps=482 q=-0.0 size=N/A time=00:23:00.96 bitrate=N/A speed=20.1x    frame=33384 fps=483 q=-0.0 size=N/A time=00:23:12.39 bitrate=N/A speed=20.1x    frame=33615 fps=483 q=-0.0 size=N/A time=00:23:22.02 bitrate=N/A speed=20.1x    frame=33823 fps=482 q=-0.0 size=N/A time=00:23:30.70 bitrate=N/A speed=20.1x    frame=34059 fps=482 q=-0.0 size=N/A time=00:23:40.54 bitrate=N/A speed=20.1x    [Parsed_ssim_10 @ 000002a3b1da4180] SSIM Y:0.995847 (23.816068) U:0.994464 (22.568180) V:0.994762 (22.808672) All:0.995436 (23.406127)
[out#0/null @ 000002a3aa244e80] video:14696KiB audio:267492KiB subtitle:0KiB other streams:0KiB global headers:0KiB muxing overhead: unknown
frame=34201 fps=482 q=-0.0 Lsize=N/A time=00:23:46.46 bitrate=N/A speed=20.1x    
